<svg width="170" height="36" viewBox="0 0 170 36" fill="none" xmlns="http://www.w3.org/2000/svg">
<path d="M0.92 35C0.92 33.208 1.128 31.592 1.544 30.152C1.992 28.68 2.76 27.336 3.848 26.12C4.968 24.872 6.568 23.672 8.648 22.52C10.12 21.688 11.48 20.952 12.728 20.312C14.008 19.64 15.016 18.952 15.752 18.248C16.52 17.544 16.904 16.712 16.904 15.752C16.904 14.728 16.456 13.816 15.56 13.016C14.696 12.184 13.448 11.768 11.816 11.768C10.088 11.768 8.632 12.184 7.448 13.016C6.264 13.816 5.32 14.632 4.616 15.464L1.304 11.672C1.752 11.192 2.504 10.6 3.56 9.896C4.616 9.16 5.912 8.52 7.448 7.976C9.016 7.4 10.776 7.112 12.728 7.112C15.8 7.112 18.216 7.864 19.976 9.368C21.736 10.872 22.616 12.76 22.616 15.032C22.616 16.6 22.216 17.944 21.416 19.064C20.616 20.152 19.656 21.064 18.536 21.8C17.448 22.536 16.44 23.144 15.512 23.624C13.848 24.456 12.472 25.192 11.384 25.832C10.328 26.472 9.48 27.128 8.84 27.8C8.2 28.472 7.688 29.288 7.304 30.248H23.144V35H0.92ZM29.1838 35V0.919998H41.2798C44.9598 0.919998 48.0158 1.688 50.4478 3.224C52.9118 4.728 54.7678 6.776 56.0158 9.368C57.2638 11.928 57.8878 14.776 57.8878 17.912C57.8878 21.368 57.1998 24.376 55.8238 26.936C54.4478 29.496 52.5118 31.48 50.0157 32.888C47.5518 34.296 44.6398 35 41.2798 35H29.1838ZM52.4158 17.912C52.4158 15.512 51.9678 13.4 51.0718 11.576C50.2078 9.752 48.9438 8.312 47.2798 7.256C45.6478 6.2 43.6478 5.672 41.2798 5.672H34.5598V30.248H41.2798C43.6798 30.248 45.6958 29.704 47.3278 28.616C48.9918 27.528 50.2558 26.056 51.1198 24.2C51.9838 22.344 52.4158 20.248 52.4158 17.912Z" fill="#ED1C24"/>
<path d="M71.5111 35.48C69.4631 35.48 67.5591 35.144 65.7991 34.472C64.0711 33.768 62.5511 32.744 61.2391 31.4L62.5831 29.096C63.9911 30.408 65.3991 31.368 66.8071 31.976C68.2471 32.552 69.7671 32.84 71.3671 32.84C73.2871 32.84 74.8551 32.456 76.0711 31.688C77.3191 30.888 77.9431 29.752 77.9431 28.28C77.9431 27.288 77.6391 26.536 77.0311 26.024C76.4551 25.48 75.6071 25.048 74.4871 24.728C73.3991 24.408 72.0871 24.04 70.5511 23.624C68.8231 23.144 67.3671 22.648 66.1831 22.136C65.0311 21.592 64.1511 20.92 63.5431 20.12C62.9671 19.288 62.6791 18.216 62.6791 16.904C62.6791 15.304 63.0791 13.96 63.8791 12.872C64.7111 11.784 65.8311 10.968 67.2391 10.424C68.6791 9.848 70.2791 9.56 72.0391 9.56C73.9591 9.56 75.6551 9.864 77.1271 10.472C78.5991 11.08 79.7991 11.928 80.7271 13.016L79.1431 15.224C78.2791 14.2 77.2071 13.448 75.9271 12.968C74.6791 12.456 73.3191 12.2 71.8471 12.2C70.8231 12.2 69.8471 12.344 68.9191 12.632C67.9911 12.888 67.2231 13.336 66.6151 13.976C66.0391 14.584 65.7511 15.432 65.7511 16.52C65.7511 17.864 66.2471 18.792 67.2391 19.304C68.2311 19.816 69.7351 20.36 71.7511 20.936C73.6391 21.448 75.2871 21.96 76.6951 22.472C78.1031 22.984 79.1911 23.672 79.9591 24.536C80.7271 25.368 81.1111 26.536 81.1111 28.04C81.1111 30.376 80.2311 32.2 78.4711 33.512C76.7111 34.824 74.3911 35.48 71.5111 35.48ZM98.5063 33.8C98.1223 33.96 97.4183 34.248 96.3943 34.664C95.3703 35.08 94.1863 35.288 92.8423 35.288C91.4343 35.288 90.2023 34.888 89.1463 34.088C88.0903 33.288 87.5623 32.088 87.5623 30.488V12.584H84.1063V9.992H87.5623V1.544H90.8263V9.992H96.5863V12.584H90.8263V29.576C90.8903 30.504 91.2103 31.192 91.7863 31.64C92.3943 32.056 93.0823 32.264 93.8503 32.264C94.7463 32.264 95.5463 32.12 96.2503 31.832C96.9863 31.512 97.4503 31.288 97.6423 31.16L98.5063 33.8ZM112.819 35.48C110.419 35.48 108.275 34.888 106.387 33.704C104.531 32.52 103.075 30.952 102.019 29C100.963 27.016 100.435 24.872 100.435 22.568C100.435 20.232 100.963 18.088 102.019 16.136C103.107 14.152 104.579 12.568 106.435 11.384C108.323 10.168 110.451 9.56 112.819 9.56C115.219 9.56 117.347 10.168 119.203 11.384C121.091 12.568 122.563 14.152 123.619 16.136C124.707 18.088 125.251 20.232 125.251 22.568C125.251 24.872 124.723 27.016 123.667 29C122.611 30.952 121.139 32.52 119.251 33.704C117.395 34.888 115.251 35.48 112.819 35.48ZM103.747 22.616C103.747 24.472 104.147 26.168 104.947 27.704C105.779 29.208 106.883 30.408 108.259 31.304C109.635 32.168 111.155 32.6 112.819 32.6C114.483 32.6 116.003 32.152 117.379 31.256C118.755 30.36 119.859 29.144 120.691 27.608C121.523 26.072 121.939 24.376 121.939 22.52C121.939 20.664 121.523 18.968 120.691 17.432C119.859 15.896 118.755 14.68 117.379 13.784C116.003 12.888 114.483 12.44 112.819 12.44C111.187 12.44 109.683 12.904 108.307 13.832C106.931 14.728 105.827 15.944 104.995 17.48C104.163 19.016 103.747 20.728 103.747 22.616ZM143.189 12.872C141.013 12.936 139.093 13.544 137.429 14.696C135.797 15.848 134.645 17.432 133.973 19.448V35H130.709V9.992H133.781V15.992C134.645 14.232 135.781 12.808 137.189 11.72C138.629 10.632 140.149 10.024 141.749 9.896C142.069 9.864 142.341 9.848 142.565 9.848C142.789 9.848 142.997 9.864 143.189 9.896V12.872ZM157.588 35.48C155.188 35.48 153.044 34.888 151.156 33.704C149.268 32.52 147.78 30.936 146.692 28.952C145.604 26.968 145.06 24.792 145.06 22.424C145.06 20.088 145.588 17.944 146.644 15.992C147.732 14.04 149.22 12.488 151.108 11.336C152.996 10.152 155.14 9.56 157.54 9.56C160.004 9.56 162.164 10.152 164.02 11.336C165.876 12.52 167.316 14.088 168.34 16.04C169.396 17.96 169.924 20.072 169.924 22.376C169.924 22.888 169.908 23.32 169.876 23.672H148.468C148.628 25.464 149.14 27.064 150.004 28.472C150.868 29.848 151.972 30.952 153.316 31.784C154.66 32.584 156.132 32.984 157.732 32.984C159.364 32.984 160.9 32.568 162.34 31.736C163.78 30.904 164.804 29.816 165.412 28.472L168.244 29.24C167.732 30.456 166.932 31.544 165.844 32.504C164.788 33.432 163.556 34.168 162.148 34.712C160.74 35.224 159.22 35.48 157.588 35.48ZM148.372 21.32H166.852C166.724 19.528 166.228 17.944 165.364 16.568C164.5 15.16 163.396 14.072 162.052 13.304C160.708 12.504 159.22 12.104 157.588 12.104C155.956 12.104 154.468 12.504 153.124 13.304C151.78 14.072 150.676 15.16 149.812 16.568C148.98 17.944 148.5 19.528 148.372 21.32Z" fill="black"/>
</svg>
