<svg width="44" height="26" viewBox="0 0 44 26" fill="none" xmlns="http://www.w3.org/2000/svg">
<path d="M0.44 26C0.44 24.656 0.596 23.444 0.908 22.364C1.244 21.26 1.82 20.252 2.636 19.34C3.476 18.404 4.676 17.504 6.236 16.64C7.34 16.016 8.36 15.464 9.296 14.984C10.256 14.48 11.012 13.964 11.564 13.436C12.14 12.908 12.428 12.284 12.428 11.564C12.428 10.796 12.092 10.112 11.42 9.512C10.772 8.888 9.836 8.576 8.612 8.576C7.316 8.576 6.224 8.888 5.336 9.512C4.448 10.112 3.74 10.724 3.212 11.348L0.728 8.504C1.064 8.144 1.628 7.7 2.42 7.172C3.212 6.62 4.184 6.14 5.336 5.732C6.512 5.3 7.832 5.084 9.296 5.084C11.6 5.084 13.412 5.648 14.732 6.776C16.052 7.904 16.712 9.32 16.712 11.024C16.712 12.2 16.412 13.208 15.812 14.048C15.212 14.864 14.492 15.548 13.652 16.1C12.836 16.652 12.08 17.108 11.384 17.468C10.136 18.092 9.104 18.644 8.288 19.124C7.496 19.604 6.86 20.096 6.38 20.6C5.9 21.104 5.516 21.716 5.228 22.436H17.108V26H0.44ZM21.6378 26V0.439999H30.7098C33.4698 0.439999 35.7618 1.016 37.5858 2.168C39.4338 3.296 40.8258 4.832 41.7618 6.776C42.6978 8.696 43.1658 10.832 43.1658 13.184C43.1658 15.776 42.6498 18.032 41.6178 19.952C40.5858 21.872 39.1338 23.36 37.2618 24.416C35.4138 25.472 33.2298 26 30.7098 26H21.6378ZM39.0618 13.184C39.0618 11.384 38.7258 9.8 38.0538 8.432C37.4058 7.064 36.4578 5.984 35.2098 5.192C33.9858 4.4 32.4858 4.004 30.7098 4.004H25.6698V22.436H30.7098C32.5098 22.436 34.0218 22.028 35.2458 21.212C36.4938 20.396 37.4418 19.292 38.0898 17.9C38.7378 16.508 39.0618 14.936 39.0618 13.184Z" fill="#ED1C24"/>
</svg>
